<svg width="63" height="39" viewBox="0 0 63 39" fill="none" xmlns="http://www.w3.org/2000/svg">
<path d="M26.2822 5.26952L21.0127 10.5391L16.9542 10.1136C14.722 9.87794 12.8498 9.69466 12.7975 9.70772C12.7451 9.7143 12.9676 9.86483 13.295 10.0285C13.6223 10.1987 13.9299 10.382 13.9758 10.4409C14.0477 10.526 14.0019 10.5325 13.5764 10.5064C13.3081 10.4867 10.3951 10.3558 7.10245 10.2118C3.80978 10.0678 0.864074 9.93685 0.55641 9.92374L0 9.89104L0.360029 10.0547C0.55641 10.1529 2.40239 10.7813 4.45129 11.4686C7.17442 12.372 8.31343 12.7255 8.67349 12.7647C8.94184 12.7975 9.98924 12.8368 10.9973 12.8629C13.0658 12.9087 18.2896 13.1313 18.3354 13.1706C18.3485 13.1902 18.2765 13.2818 18.1717 13.38L17.9885 13.5568L14.6565 13.7139C12.8236 13.799 11.1609 13.8841 10.9646 13.8906L10.6045 13.9103L11.1609 14.1852C11.9465 14.578 14.074 15.5664 14.4667 15.7235C14.7351 15.8348 14.8791 15.8479 15.2849 15.8152L15.7759 15.7759L14.2376 17.3142C13.3932 18.1587 12.7189 18.8591 12.732 18.8787C12.7516 18.8983 16.8494 23.0027 21.8375 27.9973L30.9103 37.0832L30.9888 37.6723C31.1001 38.4775 31.1656 38.5626 31.2245 37.9407C31.2703 37.4563 31.2769 37.4432 31.3947 37.548C31.5125 37.6527 31.5256 37.6527 31.6434 37.548C31.7678 37.4367 31.7744 37.4432 31.8202 37.8164C31.8987 38.4644 31.9511 38.4971 32.0297 37.9472C32.0755 37.6658 32.1082 37.3581 32.1082 37.2599C32.1082 37.1094 33.6072 35.5841 41.2399 27.9515L50.3716 18.8198L48.8529 17.3011L47.3408 15.789L47.8579 15.8217L48.3751 15.8479L49.3568 15.3831C49.9003 15.1213 50.7644 14.722 51.2882 14.4929C51.8116 14.2572 52.2765 14.0347 52.3222 13.9888C52.3879 13.9234 51.681 13.871 48.7613 13.7335L45.1151 13.5634L44.9188 13.367L44.7224 13.1706L45.2068 13.1313C45.8483 13.0789 50.162 12.9087 52.63 12.8302C54.286 12.7844 54.666 12.7516 55.0518 12.6404C55.6803 12.4636 62.4554 10.1856 62.7696 10.0547C62.9071 9.98924 63.0121 9.93032 62.9989 9.91721C62.9792 9.9041 51.3275 10.4016 49.5993 10.4932C48.866 10.5325 48.8726 10.4932 49.6646 10.0808C50.2538 9.77975 50.3849 9.68809 50.2341 9.68809C50.1885 9.68809 48.3293 9.87794 46.1167 10.1136L42.0909 10.5325L36.8214 5.26952L31.5518 0L26.2822 5.26952ZM36.1668 6.05505C38.7066 8.59493 40.749 10.67 40.7162 10.6766C40.6769 10.6766 40.2973 10.7158 39.8652 10.7616C39.4332 10.8075 39.0666 10.8402 39.0601 10.8271C39.047 10.8206 39.1518 10.5456 39.3023 10.2183C39.6034 9.53756 39.6034 9.53756 38.8506 10.0743C38.6149 10.238 38.0258 10.6438 37.5414 10.9711C35.3878 12.4178 34.3797 13.1051 34.0459 13.3473C33.6727 13.6223 33.2407 13.8579 33.1948 13.8055C33.1687 13.7728 32.7628 11.1086 32.7694 10.9842C32.7694 10.9384 32.8545 11.0759 32.9592 11.2919C33.1948 11.7894 33.2145 11.6192 33.0181 10.67C32.8676 9.92374 32.8806 9.73394 33.1163 9.38046L33.28 9.13822L32.9592 8.9222C32.6188 8.69312 32.5468 8.5753 32.7497 8.5753C32.8087 8.5753 32.7432 8.51638 32.5926 8.45089C32.4421 8.38544 32.3111 8.26762 32.2915 8.20217C32.2129 7.9076 30.799 7.9076 30.799 8.20217C30.799 8.25451 30.6812 8.34617 30.5372 8.41161C30.3146 8.5098 30.2884 8.54255 30.3801 8.60799C30.4717 8.67349 30.439 8.71276 30.1509 8.89603C29.9677 9.01386 29.8171 9.13169 29.8171 9.15786C29.8171 9.1775 29.8956 9.31496 29.9808 9.45901C30.1772 9.77975 30.1837 10.0023 30.0135 10.8337C29.8302 11.7304 29.8498 11.8156 30.1117 11.2919C30.2361 11.0366 30.3212 10.9056 30.308 10.9973C30.2557 11.2591 29.8826 13.7663 29.8826 13.8252C29.8826 13.9103 29.4374 13.6616 28.9989 13.3408C28.7829 13.1837 28.1806 12.7647 27.6569 12.4178C26.7536 11.809 25.1171 10.6962 24.0566 9.9696C23.7882 9.77975 23.5591 9.64228 23.546 9.65539C23.5329 9.66845 23.6311 9.93032 23.7686 10.238C23.8995 10.5522 23.9977 10.814 23.9846 10.8271C23.9715 10.8402 23.618 10.8075 23.2056 10.7616C22.7933 10.7158 22.407 10.6766 22.3546 10.6766C22.2696 10.67 31.434 1.44012 31.5191 1.44012C31.5387 1.44012 33.6269 3.51521 36.1668 6.05505ZM22.3416 13.3211C22.3612 13.3408 21.7524 13.38 20.2272 13.4586L19.4417 13.5044L19.5726 13.3539C19.7035 13.2099 19.7166 13.2099 21.0127 13.2557C21.7328 13.2819 22.3285 13.3146 22.3416 13.3211ZM43.4721 13.3604L43.5965 13.5044L42.811 13.4586C42.3789 13.439 41.7309 13.3931 41.3708 13.367L40.7162 13.3211L41.4363 13.2818C43.099 13.2033 43.3347 13.2099 43.4721 13.3604ZM19.9326 14.9642C19.9326 14.9838 19.7166 15.0951 19.4613 15.2195C19.1995 15.3438 19.0424 15.442 19.1144 15.442C19.1864 15.4486 20.201 15.3766 21.3727 15.2849C22.5445 15.1933 23.5722 15.1278 23.6639 15.1278C23.7555 15.1344 22.4463 15.3177 20.7509 15.5468C19.062 15.7759 17.707 15.9592 17.7397 15.9657C17.779 15.9723 18.1979 16.0181 18.6823 16.0705C19.1667 16.1228 19.5791 16.1818 19.5922 16.2014C19.6119 16.221 19.5922 16.2341 19.553 16.2341C19.5137 16.2341 18.7936 16.3389 17.9557 16.4632C17.1179 16.5942 16.3912 16.6858 16.3454 16.6792C16.2996 16.6662 16.5614 16.365 16.9345 15.9985L17.6088 15.3438L18.6234 15.1606C19.1798 15.0624 19.6708 14.9707 19.7035 14.9577C19.8148 14.9184 19.9326 14.9249 19.9326 14.9642ZM44.5719 15.1867L45.4752 15.3635L46.1233 16.0115C46.4767 16.365 46.7517 16.6662 46.7386 16.6792C46.7255 16.6923 45.9727 16.5942 45.0759 16.4567C44.1725 16.3257 43.4394 16.2079 43.4525 16.1949C43.459 16.1883 43.8779 16.1294 44.3755 16.077C44.8795 16.0181 45.2985 15.9592 45.305 15.9526C45.3181 15.9396 43.9696 15.7628 42.32 15.5468C40.6639 15.3373 39.3219 15.1475 39.335 15.1344C39.3547 15.1213 40.402 15.1867 41.6654 15.2849C42.9353 15.3766 43.9827 15.442 43.9958 15.429C44.0154 15.4159 43.8518 15.3242 43.6358 15.2326C43.4263 15.1409 43.2299 15.0362 43.2102 14.9969C43.1579 14.9184 43.3608 14.9446 44.5719 15.1867ZM36.0489 15.4944C36.0162 15.5599 35.6562 16.2341 35.2568 17C34.8575 17.7659 34.5302 18.4074 34.5302 18.427C34.5302 18.4859 34.923 18.2699 35.427 17.9295C35.6889 17.7528 35.9573 17.6088 36.0293 17.6088C36.1013 17.6088 36.481 17.7463 36.8672 17.9099C37.2534 18.0801 37.6723 18.2569 37.7967 18.3092C37.9996 18.3943 38.0062 18.4074 37.908 18.5187C37.8491 18.5841 37.5152 18.7871 37.1617 18.9704C36.4744 19.3304 36.2126 19.5006 36.35 19.5071C36.5399 19.5071 40.0747 18.4401 40.5853 18.2241L40.8472 18.1194L40.1598 17.8641C39.7802 17.7266 38.9423 17.4255 38.2942 17.1898C37.6461 16.9542 37.1356 16.7644 37.1552 16.7644C37.201 16.7578 41.8291 17.7921 42.0123 17.8445C42.1825 17.8968 42.1105 17.9623 41.5148 18.2961C40.4806 18.8853 38.6608 19.9915 38.687 20.0177C38.7001 20.0308 40.1467 19.4678 41.9076 18.7674C45.1741 17.4648 46.0643 17.1244 46.4113 17.0458C46.5226 17.0197 46.6665 16.9476 46.7386 16.8822C46.8695 16.7644 46.8891 16.7709 47.9037 17.7921L48.9316 18.8198L42.5557 25.1956L36.1798 31.5715L36.1013 31.2834C36.062 31.1263 35.63 29.6273 35.139 27.9515C33.1687 21.1763 33.0574 20.7574 33.1229 20.3385C33.1818 19.9915 33.7316 17.5237 33.784 17.3862C33.8036 17.3273 33.9607 17.1833 34.1244 17.0589C34.2946 16.9411 34.7986 16.5091 35.2503 16.1097C35.6955 15.7104 36.0751 15.3831 36.0882 15.3831C36.0947 15.3831 36.0816 15.4355 36.0489 15.4944ZM27.945 16.2145C28.4294 16.64 28.9269 17.072 29.0578 17.1833C29.2934 17.3797 29.3 17.3928 29.6207 18.8525C29.7975 19.6642 29.948 20.4301 29.948 20.5545C29.948 20.8687 29.6404 22.0274 28.6977 25.248C28.2592 26.7536 27.6765 28.7697 27.4016 29.732C27.1202 30.6943 26.878 31.4994 26.8649 31.5125C26.8452 31.5322 23.9715 28.6847 20.4694 25.1825L14.1067 18.8198L15.154 17.7724C16.1752 16.7513 16.2014 16.7316 16.3258 16.8494C16.3978 16.9149 16.7185 17.0524 17.0327 17.1637C17.3469 17.2684 19.1209 17.9557 20.9669 18.6954C22.8194 19.4351 24.3447 20.0308 24.3577 20.0112C24.3905 19.985 22.8914 19.0685 21.7197 18.4009C21.0651 18.0212 20.908 17.8903 21.052 17.8445C21.2222 17.7855 25.8502 16.7644 25.8633 16.7774C25.8764 16.7905 25.0647 17.0916 24.0566 17.4451C23.0551 17.8052 22.2499 18.1194 22.2761 18.1456C22.3874 18.2437 26.4656 19.5071 26.6881 19.5071C26.8452 19.5071 26.6096 19.3435 25.9222 18.9835C25.5164 18.7674 25.1498 18.5448 25.1105 18.499C25.0516 18.427 25.2087 18.3354 25.8895 18.0408C27.0612 17.5237 27.0612 17.5237 27.6504 17.9361C28.3115 18.3943 28.6847 18.5841 28.5276 18.3747C28.4097 18.2306 26.9958 15.4486 27.0351 15.4486C27.0547 15.4486 27.4671 15.7955 27.945 16.2145ZM29.6404 31.4536C29.4374 32.789 29.2607 33.8887 29.2476 33.9084C29.2214 33.9411 27.1987 31.9315 27.1987 31.8726C27.1987 31.794 28.8745 29.3 28.9923 29.2018C29.1232 29.0905 29.1232 29.0578 28.9989 30.4062C28.8876 31.6369 28.8745 31.9576 28.9661 31.8071C28.9989 31.7547 29.2018 31.1787 29.4113 30.5306C29.863 29.1821 29.9415 28.9727 29.9808 29.0054C29.9938 29.0185 29.8367 30.1248 29.6404 31.4536ZM33.6465 30.5372C33.9084 31.3162 34.144 31.9773 34.1702 31.9969C34.1964 32.0231 34.1964 31.8791 34.1767 31.6827C34.0917 30.9168 33.9411 29.1101 33.9607 29.084C34.0131 29.0381 35.8394 31.7351 35.8394 31.8594C35.8394 31.9184 33.8102 33.9607 33.8036 33.9084C33.8036 33.8887 33.6335 32.7759 33.424 31.4405C33.2211 30.0986 33.077 29.025 33.1098 29.0578C33.1425 29.0905 33.3847 29.7516 33.6465 30.5372ZM30.6026 31.2049C30.6026 31.3096 30.6288 31.8594 30.6615 32.4355C30.7008 33.0116 30.7467 33.9411 30.7663 34.4975L30.8121 35.5121L30.1509 34.8575C29.7844 34.4975 29.4898 34.1637 29.4898 34.1113C29.4898 34.0589 29.6404 33.5418 29.8237 32.9658C30.367 31.2507 30.6026 30.7204 30.6026 31.2049ZM33.0508 32.4028C33.2472 32.9985 33.4501 33.6335 33.5025 33.8167L33.6007 34.1506L32.9199 34.8314L32.2326 35.5121L32.2719 34.923C32.2915 34.5957 32.3373 33.6727 32.37 32.861C32.4093 32.0493 32.4552 31.3031 32.4748 31.1983L32.5141 31.002L32.6057 31.1656C32.6581 31.2507 32.8545 31.8071 33.0508 32.4028Z" fill="#00487A"/>
</svg>
