<svg width="1292" height="1097" viewBox="0 0 1292 1097" fill="none" xmlns="http://www.w3.org/2000/svg">
<path d="M539.333 107.333L432 214.667L349.333 206C303.867 201.2 265.733 197.467 264.667 197.733C263.6 197.867 268.133 200.933 274.8 204.267C281.467 207.733 287.733 211.467 288.667 212.667C290.133 214.4 289.2 214.533 280.533 214C275.067 213.6 215.733 210.933 148.667 208C81.6 205.067 21.6 202.4 15.3333 202.133L4 201.467L11.3333 204.8C15.3333 206.8 52.9333 219.6 94.6667 233.6C150.133 252 173.333 259.2 180.667 260C186.133 260.667 207.467 261.467 228 262C270.133 262.933 376.533 267.467 377.467 268.267C377.733 268.667 376.267 270.533 374.133 272.533L370.4 276.133L302.533 279.333C265.2 281.067 231.333 282.8 227.333 282.933L220 283.333L231.333 288.933C247.333 296.933 290.667 317.067 298.667 320.267C304.133 322.533 307.067 322.8 315.333 322.133L325.333 321.333L294 352.667C276.8 369.867 263.067 384.133 263.333 384.533C263.733 384.933 347.2 468.533 448.8 570.267L633.6 755.333L635.2 767.333C637.467 783.733 638.8 785.467 640 772.8C640.933 762.933 641.067 762.667 643.467 764.8C645.867 766.933 646.133 766.933 648.533 764.8C651.067 762.533 651.2 762.667 652.133 770.267C653.733 783.467 654.8 784.133 656.4 772.933C657.333 767.2 658 760.933 658 758.933C658 755.867 688.533 724.8 844 569.333L1030 383.333L999.067 352.4L968.267 321.6L978.8 322.267L989.333 322.8L1009.33 313.333C1020.4 308 1038 299.867 1048.67 295.2C1059.33 290.4 1068.8 285.867 1069.73 284.933C1071.07 283.6 1056.67 282.533 997.2 279.733L922.933 276.267L918.933 272.267L914.933 268.267L924.8 267.467C937.867 266.4 1025.73 262.933 1076 261.333C1109.73 260.4 1117.47 259.733 1125.33 257.467C1138.13 253.867 1276.13 207.467 1282.53 204.8C1285.33 203.467 1287.47 202.267 1287.2 202C1286.8 201.733 1049.47 211.867 1014.27 213.733C999.333 214.533 999.467 213.733 1015.6 205.333C1027.6 199.2 1030.27 197.333 1027.2 197.333C1026.27 197.333 988.4 201.2 943.333 206L861.333 214.533L754 107.333L646.667 7.3193e-05L539.333 107.333ZM740.667 123.333C792.4 175.067 834 217.333 833.333 217.467C832.533 217.467 824.8 218.267 816 219.2C807.2 220.133 799.733 220.8 799.6 220.533C799.333 220.4 801.467 214.8 804.533 208.133C810.667 194.267 810.667 194.267 795.333 205.2C790.533 208.533 778.533 216.8 768.667 223.467C724.8 252.933 704.267 266.933 697.467 271.867C689.867 277.467 681.067 282.267 680.133 281.2C679.6 280.533 671.333 226.267 671.467 223.733C671.467 222.8 673.2 225.6 675.333 230C680.133 240.133 680.533 236.667 676.533 217.333C673.467 202.133 673.733 198.267 678.533 191.067L681.867 186.133L675.333 181.733C668.4 177.067 666.933 174.667 671.067 174.667C672.267 174.667 670.933 173.467 667.867 172.133C664.8 170.8 662.133 168.4 661.733 167.067C660.133 161.067 631.333 161.067 631.333 167.067C631.333 168.133 628.933 170 626 171.333C621.467 173.333 620.933 174 622.8 175.333C624.667 176.667 624 177.467 618.133 181.2C614.4 183.6 611.333 186 611.333 186.533C611.333 186.933 612.933 189.733 614.667 192.667C618.667 199.2 618.8 203.733 615.333 220.667C611.6 238.933 612 240.667 617.333 230C619.867 224.8 621.6 222.133 621.333 224C620.267 229.333 612.667 280.4 612.667 281.6C612.667 283.333 603.6 278.267 594.667 271.733C590.267 268.533 578 260 567.333 252.933C548.933 240.533 515.6 217.867 494 203.067C488.533 199.2 483.867 196.4 483.6 196.667C483.333 196.933 485.333 202.267 488.133 208.533C490.8 214.933 492.8 220.267 492.533 220.533C492.267 220.8 485.067 220.133 476.667 219.2C468.267 218.267 460.4 217.467 459.333 217.467C457.6 217.333 644.267 29.3334 646 29.3334C646.4 29.3334 688.933 71.6001 740.667 123.333ZM459.067 271.333C459.467 271.733 447.067 272.533 416 274.133L400 275.067L402.667 272C405.333 269.067 405.6 269.067 432 270C446.667 270.533 458.8 271.2 459.067 271.333ZM889.467 272.133L892 275.067L876 274.133C867.2 273.733 854 272.8 846.667 272.267L833.333 271.333L848 270.533C881.867 268.933 886.667 269.067 889.467 272.133ZM410 304.8C410 305.2 405.6 307.467 400.4 310C395.067 312.533 391.867 314.533 393.333 314.533C394.8 314.667 415.467 313.2 439.333 311.333C463.2 309.467 484.133 308.133 486 308.133C487.867 308.267 461.2 312 426.667 316.667C392.267 321.333 364.667 325.067 365.333 325.2C366.133 325.333 374.667 326.267 384.533 327.333C394.4 328.4 402.8 329.6 403.067 330C403.467 330.4 403.067 330.667 402.267 330.667C401.467 330.667 386.8 332.8 369.733 335.333C352.667 338 337.867 339.867 336.933 339.733C336 339.467 341.333 333.333 348.933 325.867L362.667 312.533L383.333 308.8C394.667 306.8 404.667 304.933 405.333 304.667C407.6 303.867 410 304 410 304.8ZM911.867 309.333L930.267 312.933L943.467 326.133C950.667 333.333 956.267 339.467 956 339.733C955.733 340 940.4 338 922.133 335.2C903.733 332.533 888.8 330.133 889.067 329.867C889.2 329.733 897.733 328.533 907.867 327.467C918.133 326.267 926.667 325.067 926.8 324.933C927.067 324.667 899.6 321.067 866 316.667C832.267 312.4 804.933 308.533 805.2 308.267C805.6 308 826.933 309.333 852.667 311.333C878.533 313.2 899.867 314.533 900.133 314.267C900.533 314 897.2 312.133 892.8 310.267C888.533 308.4 884.533 306.267 884.133 305.467C883.067 303.867 887.2 304.4 911.867 309.333ZM738.267 315.6C737.6 316.933 730.267 330.667 722.133 346.267C714 361.867 707.333 374.933 707.333 375.333C707.333 376.533 715.333 372.133 725.6 365.2C730.933 361.6 736.4 358.667 737.867 358.667C739.333 358.667 747.067 361.467 754.933 364.8C762.8 368.267 771.333 371.867 773.867 372.933C778 374.667 778.133 374.933 776.133 377.2C774.933 378.533 768.133 382.667 760.933 386.4C746.933 393.733 741.6 397.2 744.4 397.333C748.267 397.333 820.267 375.6 830.667 371.2L836 369.067L822 363.867C814.267 361.067 797.2 354.933 784 350.133C770.8 345.333 760.4 341.467 760.8 341.467C761.733 341.333 856 362.4 859.733 363.467C863.2 364.533 861.733 365.867 849.6 372.667C828.533 384.667 791.467 407.2 792 407.733C792.267 408 821.733 396.533 857.6 382.267C924.133 355.733 942.267 348.8 949.333 347.2C951.6 346.667 954.533 345.2 956 343.867C958.667 341.467 959.067 341.6 979.733 362.4L1000.67 383.333L870.8 513.2L740.933 643.067L739.333 637.2C738.533 634 729.733 603.467 719.733 569.333C679.6 431.333 677.333 422.8 678.667 414.267C679.867 407.2 691.067 356.933 692.133 354.133C692.533 352.933 695.733 350 699.067 347.467C702.533 345.067 712.8 336.267 722 328.133C731.067 320 738.8 313.333 739.067 313.333C739.2 313.333 738.933 314.4 738.267 315.6ZM573.2 330.267C583.067 338.933 593.2 347.733 595.867 350C600.667 354 600.8 354.267 607.333 384C610.933 400.533 614 416.133 614 418.667C614 425.067 607.733 448.667 588.533 514.267C579.6 544.933 567.733 586 562.133 605.6C556.4 625.2 551.467 641.6 551.2 641.867C550.8 642.267 492.267 584.267 420.933 512.933L291.333 383.333L312.667 362C333.467 341.2 334 340.8 336.533 343.2C338 344.533 344.533 347.333 350.933 349.6C357.333 351.733 393.467 365.733 431.067 380.8C468.8 395.867 499.867 408 500.133 407.6C500.8 407.067 470.267 388.4 446.4 374.8C433.067 367.067 429.867 364.4 432.8 363.467C436.267 362.267 530.533 341.467 530.8 341.733C531.067 342 514.533 348.133 494 355.333C473.6 362.667 457.2 369.067 457.733 369.6C460 371.6 543.067 397.333 547.6 397.333C550.8 397.333 546 394 532 386.667C523.733 382.267 516.267 377.733 515.467 376.8C514.267 375.333 517.467 373.467 531.333 367.467C555.2 356.933 555.2 356.933 567.2 365.333C580.667 374.667 588.267 378.533 585.067 374.267C582.667 371.333 553.867 314.667 554.667 314.667C555.067 314.667 563.467 321.733 573.2 330.267ZM607.733 640.667C603.6 667.867 600 690.267 599.733 690.667C599.2 691.333 558 650.4 558 649.2C558 647.6 592.133 596.8 594.533 594.8C597.2 592.533 597.2 591.867 594.667 619.333C592.4 644.4 592.133 650.933 594 647.867C594.667 646.8 598.8 635.067 603.067 621.867C612.267 594.4 613.867 590.133 614.667 590.8C614.933 591.067 611.733 613.6 607.733 640.667ZM689.333 622C694.667 637.867 699.467 651.333 700 651.733C700.533 652.267 700.533 649.333 700.133 645.333C698.4 629.733 695.333 592.933 695.733 592.4C696.8 591.467 734 646.4 734 648.933C734 650.133 692.667 691.733 692.533 690.667C692.533 690.267 689.067 667.6 684.8 640.4C680.667 613.067 677.733 591.2 678.4 591.867C679.067 592.533 684 606 689.333 622ZM627.333 635.6C627.333 637.733 627.867 648.933 628.533 660.667C629.333 672.4 630.267 691.333 630.667 702.667L631.6 723.333L618.133 710C610.667 702.667 604.667 695.867 604.667 694.8C604.667 693.733 607.733 683.2 611.467 671.467C622.533 636.533 627.333 625.733 627.333 635.6ZM677.2 660C681.2 672.133 685.333 685.067 686.4 688.8L688.4 695.6L674.533 709.467L660.533 723.333L661.333 711.333C661.733 704.667 662.667 685.867 663.333 669.333C664.133 652.8 665.067 637.6 665.467 635.467L666.267 631.467L668.133 634.8C669.2 636.533 673.2 647.867 677.2 660Z" fill="#00487A"/>
<path d="M0.666626 908V993.333H18H35.3333V908V822.667H18H0.666626V908Z" fill="#00487A"/>
<path d="M103.333 838V853.333H126.667H150V923.333V993.333H167.333H184.667V923.333V853.333H207.333H230V838V822.667H166.667H103.333V838Z" fill="#00487A"/>
<path d="M298 908V993.333H315.333H332.667V958V922.667H364.667H396.667V958V993.333H413.333H430V908V822.667H413.333H396.667V857.333V892H364.667H332.667V857.333V822.667H315.333H298V908Z" fill="#00487A"/>
<path d="M514 908V993.333H569.333H624.667V978.667V964L587.067 963.733L549.333 963.333L548.933 942.933L548.533 922.667H579.333H610V908V893.333L579.733 893.067L549.333 892.667L548.933 872.933L548.533 853.333H586.667H624.667V838V822.667H569.333H514V908Z" fill="#00487A"/>
<path d="M700.667 908V993.333H718H735.333V964.667V936H751.867H768.267L778.133 964.667L788 993.333H806.933H826L824.533 989.6C823.733 987.6 818.267 973.067 812.533 957.333L801.867 928.8L808.4 922.667C816.933 914.933 819.733 910.533 823.333 900.133C826.533 890.533 827.2 871.867 824.667 860.933C822.667 851.467 817.6 842.533 811.467 836.933C798 824.667 787.333 822.667 738 822.667H700.667V908ZM774.667 853.467C796 859.467 797.2 897.333 776.267 905.2C774.133 906 764.133 906.667 753.867 906.667H735.333V879.333V852H752.4C761.733 852 771.733 852.667 774.667 853.467Z" fill="#00487A"/>
<path d="M900.667 881.6C900.667 914.133 901.333 944.8 902 950C905.467 973.867 918.933 988.4 942.267 994C953.2 996.533 978.8 996.533 989.733 994C1012.8 988.533 1026.53 973.6 1030 950C1030.67 944.8 1031.33 914.133 1031.33 881.6V822.667H1014H996.667V882.267C996.667 944 996.267 949.067 991.067 956.4C985.333 964.4 970.267 968.267 956.133 965.333C946.4 963.333 939.2 956.667 936.933 947.6C935.867 943.467 935.333 922.667 935.333 882.133V822.667H918H900.667V881.6Z" fill="#00487A"/>
<path d="M1112.67 908V993.333H1130H1147.33V927.2C1147.33 865.333 1147.47 861.2 1149.6 861.6C1151.47 861.867 1153.73 868.933 1160.27 893.333C1164.93 910.533 1172.4 938.267 1176.93 954.933L1185.07 985.333H1202.53H1220L1236.53 923.333C1247.87 880.667 1253.6 861.333 1254.93 861.333C1256.4 861.333 1256.67 873.067 1256.67 927.333V993.333H1274H1291.33V908V822.667H1262.13C1235.33 822.667 1232.8 822.933 1232.13 824.933C1231.73 826.267 1225.07 853.733 1217.33 886C1209.6 918.267 1203.07 945.2 1202.8 946C1202.53 947.2 1197.87 928.667 1177.87 846.267L1172.27 822.667H1142.4H1112.67V908Z" fill="#00487A"/>
<path d="M911.067 1041.87C907.067 1043.6 904.667 1045.47 904.667 1046.93C904.667 1049.87 905.2 1049.87 913.067 1047.2C917.467 1045.73 919.333 1044.4 919.333 1042.67C919.333 1038.93 918 1038.8 911.067 1041.87Z" fill="#00487A"/>
<path d="M167.867 1054.67C164 1056.27 160.667 1061.2 160.667 1065.33C160.667 1070.67 164.133 1074.27 171.733 1076.8C180 1079.47 182 1080.8 182 1084.13C182 1088.53 176.267 1091.07 168.667 1090C162.667 1089.2 162 1089.33 162 1091.73C162 1094.8 165.333 1096 174.267 1096C183.333 1096 188 1091.73 188 1083.47C188 1080.13 187.333 1076.8 186.533 1076C185.733 1075.2 181.2 1073.2 176.533 1071.6C170.8 1069.6 167.867 1067.87 167.6 1066.27C166.667 1061.73 169.867 1060 178.8 1060C186.267 1060 187.333 1059.73 187.333 1057.47C187.333 1055.6 186 1054.8 182.4 1054.13C175.733 1053.07 171.333 1053.2 167.867 1054.67Z" fill="#00487A"/>
<path d="M222.4 1055.47C215.2 1059.07 211.867 1072.93 215.333 1085.47C217.333 1092.4 220.8 1095.07 229.333 1095.73C238 1096.4 242.667 1094 245.467 1087.33C247.867 1081.33 247.867 1067.87 245.333 1061.87C242.133 1054.13 231.2 1051.07 222.4 1055.47ZM238.933 1064C239.867 1065.87 240.667 1071.07 240.667 1075.73C240.667 1082.93 240.133 1084.67 237.333 1087.33C230.667 1094.13 222.267 1090.13 221.067 1079.73C220.133 1072 221.467 1064.67 224.267 1062C225.6 1060.53 228.133 1060 231.733 1060.27C236.133 1060.53 237.6 1061.33 238.933 1064Z" fill="#00487A"/>
<path d="M847.6 1055.33C841.333 1058.13 838.933 1064.53 839.6 1077.73C840 1087.6 840.267 1088.4 844.4 1092.13C848 1095.33 849.867 1096 855.733 1096C868.533 1096 868.667 1095.87 868.667 1083.87V1073.33H863.333C858.533 1073.33 858 1073.6 858 1076.67C858 1079.2 858.667 1080 860.8 1080C863.067 1080 863.467 1080.67 863.067 1084.93C862.667 1089.73 862.4 1090 857.733 1090.4C853.867 1090.8 852 1090.13 849.333 1087.47C846.4 1084.53 846 1082.93 846 1075.07C846 1061.87 847.6 1060 859.467 1060C867.6 1060 868.667 1059.73 868.667 1057.47C868.667 1055.6 867.333 1054.8 862.533 1054.13C854.133 1053.07 852.667 1053.2 847.6 1055.33Z" fill="#00487A"/>
<path d="M905.067 1055.2C902.8 1056.27 899.867 1058.93 898.8 1061.2C896.267 1066 895.867 1083.6 898.267 1088.67C902.8 1098.67 923.2 1098.4 927.067 1088.4C931.067 1077.73 929.733 1062.8 924.267 1057.47C920.267 1053.87 910.667 1052.67 905.067 1055.2ZM919.867 1062.93C921.733 1066 922.4 1070.67 922.133 1080.27C922 1086.53 918.133 1090.67 912.667 1090.67C905.733 1090.67 903.333 1086.8 903.333 1075.6C903.333 1063.33 905.333 1060 912.667 1060C916.667 1060 918.4 1060.67 919.867 1062.93Z" fill="#00487A"/>
<path d="M963.333 1055.73C959.467 1057.6 958.4 1059.2 956.933 1064.67C955.867 1068.93 955.6 1074.53 956.133 1079.87C956.8 1086.93 957.6 1089.2 960.667 1092.27C963.867 1095.47 965.467 1096 971.733 1096C980.8 1096 983.333 1095.07 983.333 1091.87C983.333 1089.6 982.667 1089.33 976.267 1090.13C970.667 1090.8 968.8 1090.53 966.133 1088.4C963.333 1086.13 963.067 1084.67 962.933 1075.87C962.933 1061.6 964 1060 974.667 1060C982.267 1060 983.333 1059.73 983.333 1057.47C983.333 1055.6 982 1054.8 978.4 1054.13C970.667 1052.93 968.4 1053.2 963.333 1055.73Z" fill="#00487A"/>
<path d="M1053.07 1055.47C1045.87 1059.07 1042.53 1072.93 1046 1085.47C1048 1092.4 1051.47 1095.07 1060 1095.73C1068.67 1096.4 1073.33 1094 1076.13 1087.33C1078.53 1081.33 1078.53 1067.87 1076 1061.87C1072.8 1054.13 1061.87 1051.07 1053.07 1055.47ZM1069.6 1064C1070.53 1065.87 1071.33 1071.07 1071.33 1075.73C1071.33 1082.93 1070.8 1084.67 1068 1087.33C1058.8 1096.67 1048.8 1085.2 1051.87 1068.8C1053.2 1062 1056 1059.73 1062.4 1060.27C1066.8 1060.53 1068.27 1061.33 1069.6 1064Z" fill="#00487A"/>
<path d="M1110.67 1054.67C1101.87 1058.13 1101.87 1071.07 1110.67 1075.2C1113.07 1076.4 1115.73 1077.33 1116.53 1077.33C1120.67 1077.33 1124.67 1080.67 1124.67 1084.13C1124.67 1089.33 1120.8 1091.2 1111.87 1090C1105.33 1089.2 1104.67 1089.33 1104.67 1091.73C1104.67 1094.8 1108 1096 1116.4 1096C1126 1096 1131.2 1091.87 1131.33 1084.27C1131.33 1077.47 1129.33 1075.07 1120.67 1071.87C1111.07 1068.4 1109.2 1066.53 1111.33 1062.8C1112.53 1060.4 1114 1060 1121.33 1060C1128.93 1060 1130 1059.73 1130 1057.47C1130 1055.6 1128.67 1054.8 1125.07 1054.13C1118.53 1053.07 1114 1053.2 1110.67 1054.67Z" fill="#00487A"/>
<path d="M275.333 1075.33V1096H278.667C281.867 1096 282 1095.6 282 1088V1080H290C297.067 1080 298 1079.73 298 1077.33C298 1074.93 297.067 1074.67 290 1074.67H282V1067.33V1060H291.333C299.733 1060 300.667 1059.73 300.667 1057.33C300.667 1054.8 299.733 1054.67 288 1054.67H275.333V1075.33Z" fill="#00487A"/>
<path d="M323.333 1057.33C323.333 1059.6 324.267 1060 329.333 1060H335.333V1078V1096H338.667H342V1078V1060H348C353.067 1060 354 1059.6 354 1057.33C354 1054.8 353.067 1054.67 338.667 1054.67C324.267 1054.67 323.333 1054.8 323.333 1057.33Z" fill="#00487A"/>
<path d="M376.8 1056.93C376.8 1058.27 378.4 1067.47 380.4 1077.33L384 1095.33H389.333H394.667L398.133 1079.33C402.133 1061.2 401.733 1060.93 406.8 1084.93L409.067 1096H414.267C418.4 1096 419.467 1095.47 420 1092.93C421.333 1087.2 427.333 1056.93 427.333 1055.87C427.333 1055.2 425.867 1054.67 424.133 1054.67C421.2 1054.67 420.8 1055.47 419.467 1063.33C418.667 1068.13 417.333 1075.87 416.533 1080.67C415.733 1085.47 414.667 1089.33 414.133 1089.33C413.6 1089.33 412.4 1085.6 411.467 1080.93C406.133 1054.8 406 1054.67 401.867 1054.67C397.733 1054.67 397.6 1054.93 393.333 1075.33C390.4 1089.6 390 1090.67 388.8 1087.33C388.133 1085.87 386.667 1077.87 385.333 1069.6C383.067 1055.47 382.8 1054.67 379.867 1054.67C377.733 1054.67 376.667 1055.47 376.8 1056.93Z" fill="#00487A"/>
<path d="M454.8 1073.87C452.133 1084.53 450 1093.87 450 1094.67C450 1095.47 451.333 1096 452.933 1095.73C454.933 1095.47 456.267 1094 457.2 1090.93L458.4 1086.53L466.4 1086.93C474.267 1087.33 474.533 1087.47 475.6 1091.6C476.667 1095.6 480 1097.47 482.267 1095.33C482.667 1094.93 480.8 1085.73 478.133 1074.93L473.2 1055.33L466.4 1054.93L459.733 1054.53L454.8 1073.87ZM469.867 1067.6C470.667 1071.87 471.733 1076.67 472.133 1078.27C472.933 1081.07 472.533 1081.33 467.067 1081.33C463.733 1081.33 460.8 1080.93 460.4 1080.53C460 1080.13 460.133 1077.87 460.667 1075.6C461.333 1073.2 462.533 1068.8 463.333 1065.6C465.333 1057.6 468 1058.4 469.867 1067.6Z" fill="#00487A"/>
<path d="M508.933 1074.93C509.333 1094.93 509.333 1095.33 512.4 1095.73C515.2 1096.13 515.333 1095.73 515.333 1088.8V1081.33H520.533C525.6 1081.33 525.733 1081.6 528.667 1088.67C531.067 1094.67 532.267 1096 534.8 1096C538.667 1096 538.667 1095.47 535.2 1086.8L532.267 1079.87L535.2 1076.8C539.733 1072 539.467 1061.73 534.667 1057.73C531.6 1055.07 529.733 1054.67 519.867 1054.67H508.533L508.933 1074.93ZM529.733 1061.6C530.667 1062.53 531.333 1065.07 531.333 1067.33C531.333 1073.07 529.2 1074.67 521.733 1074.67H515.333V1067.33V1060H521.733C525.2 1060 528.8 1060.67 529.733 1061.6Z" fill="#00487A"/>
<path d="M566.267 1074.93L566.667 1095.33L579.733 1095.73L592.667 1096.13V1092.67C592.667 1089.33 592.533 1089.33 582.667 1089.33H572.667V1083.33V1077.33H580.667C587.733 1077.33 588.667 1077.07 588.667 1074.67C588.667 1072.27 587.733 1072 580.667 1072H572.667V1066V1060H582.667C591.733 1060 592.667 1059.73 592.667 1057.33C592.667 1054.8 591.733 1054.67 579.333 1054.67H565.867L566.267 1074.93Z" fill="#00487A"/>
<path d="M646.267 1074.93L646.667 1095.33H659.333C671.467 1095.33 672 1095.2 672.4 1092.27C672.8 1089.47 672.4 1089.33 662.8 1089.33H652.667V1083.33V1077.33H660.667C667.733 1077.33 668.667 1077.07 668.667 1074.67C668.667 1072.27 667.733 1072 660.667 1072H652.667V1066V1060H662.667C671.733 1060 672.667 1059.73 672.667 1057.33C672.667 1054.8 671.733 1054.67 659.333 1054.67H645.867L646.267 1074.93Z" fill="#00487A"/>
<path d="M726.267 1074.93C726.667 1094.93 726.667 1095.33 729.733 1095.73C732.667 1096.13 732.667 1096.13 732.667 1077.87C732.667 1067.73 733.067 1059.87 733.467 1060.4C733.867 1060.8 737.067 1068.8 740.533 1078.27L746.667 1095.33L752.4 1095.73L758 1096.13V1075.47V1054.67H754.667H751.467L751.067 1072.27L750.667 1090L744.533 1072.67L738.4 1055.33L732.133 1054.93L725.867 1054.53L726.267 1074.93Z" fill="#00487A"/>
<path d="M787.6 1074.93L788 1095.33L801.067 1095.73L814 1096.13V1092.67C814 1089.33 813.867 1089.33 804 1089.33H794V1083.33V1077.33H802C809.067 1077.33 810 1077.07 810 1074.67C810 1072.27 809.067 1072 802 1072H794V1066V1060H804C813.067 1060 814 1059.73 814 1057.33C814 1054.8 813.067 1054.67 800.667 1054.67H787.2L787.6 1074.93Z" fill="#00487A"/>
<path d="M1010.27 1074.93C1010.67 1094.93 1010.67 1095.33 1013.73 1095.73L1016.67 1096.13V1075.47V1054.67H1013.33H1009.87L1010.27 1074.93Z" fill="#00487A"/>
</svg>
